<?xml version="1.0" standalone="no"?><!DOCTYPE svg PUBLIC "-//W3C//DTD SVG 1.1//EN" "http://www.w3.org/Graphics/SVG/1.1/DTD/svg11.dtd"><svg t="1503899656205" class="icon" style="" viewBox="0 0 1024 1024" version="1.1" xmlns="http://www.w3.org/2000/svg" p-id="2604" xmlns:xlink="http://www.w3.org/1999/xlink" width="48" height="48"><defs><style type="text/css"></style></defs><path d="M766.88 435.264l-176.608-176.64 66.72-66.752 176.544 176.704-66.656 66.688zM401.44 800.96L224.64 624.192l0.256 0.064L545.024 303.904l176.64 176.64L401.376 800.96zM224 801.92v-87.872l87.712 87.68-87.68 0.192z m655.04-478.528l-176.768-176.736A60.96 60.96 0 0 0 656.96 128a63.968 63.968 0 0 0-45.12 18.848L179.584 579.008a63.936 63.936 0 0 0-17.92 54.368c-0.768 2.688-1.696 5.312-1.696 8.256v160.288c0 35.136 28.576 63.68 63.712 63.68h160.32c2.88 0 5.504-0.896 8.192-1.632 2.976 0.416 5.952 0.832 8.96 0.832 16.416 0 32.896-6.272 45.44-18.816l432.16-432.16a64 64 0 0 0 0.224-90.432z" p-id="2605" fill="#3a40f5"></path></svg>