<?xml version="1.0" standalone="no"?><!DOCTYPE svg PUBLIC "-//W3C//DTD SVG 1.1//EN" "http://www.w3.org/Graphics/SVG/1.1/DTD/svg11.dtd"><svg t="1503899661024" class="icon" style="" viewBox="0 0 1024 1024" version="1.1" xmlns="http://www.w3.org/2000/svg" p-id="2777" xmlns:xlink="http://www.w3.org/1999/xlink" width="48" height="48"><defs><style type="text/css"></style></defs><path d="M879.04 323.36l-176.8-176.768a64.032 64.032 0 0 0-90.464 0.224l-67.36 67.392 44.864 44.64 0.96-0.192h0.032l176.64 176.576 30.304 30.4 14.848 14.88 66.72-66.72a64 64 0 0 0 0.224-90.432M325.888 815.36l-13.6-13.632-88.32-88.64-14.08-14.144-40.704-43.392L160 645.76v156.128c0 35.136 28.576 63.68 63.68 63.68h154.208l-11.648-11.2-40.352-38.976zM545.024 303.872l-45.248-45.056L179.616 578.976l45.248 45.248 176.544 176.704 45.184 45.024 318.976-318.976-43.936-46.496z" p-id="2778" fill="#3a40f5"></path></svg>