<?xml version="1.0" standalone="no"?><!DOCTYPE svg PUBLIC "-//W3C//DTD SVG 1.1//EN" "http://www.w3.org/Graphics/SVG/1.1/DTD/svg11.dtd"><svg t="1504232066569" class="icon" style="" viewBox="0 0 1024 1024" version="1.1" xmlns="http://www.w3.org/2000/svg" p-id="2604" xmlns:xlink="http://www.w3.org/1999/xlink" width="48" height="48"><defs><style type="text/css"></style></defs><path d="M695.104 546.368c-20.16 19.808-31.328 54.4-26.56 82.368l26.976 158.56-140.992-74.688c-25.056-13.248-61.408-13.28-86.464 0l-140.992 74.656 27.008-158.56c4.736-27.904-6.464-62.528-26.56-82.336l-114.56-112.512 158.08-23.136c27.936-4.096 57.312-25.6 69.792-51.04l70.464-143.872 70.464 143.872c12.512 25.472 41.856 46.944 69.824 51.04l158.08 23.136-114.56 112.512z m182.528-89.536c14.976-14.72 20.384-32.96 14.816-50.016-5.536-17.024-20.64-28.512-41.344-31.552l-190.272-27.872c-6.944-1.024-18.432-9.472-21.6-15.872l-85.088-173.76c-9.248-18.88-24.896-29.76-42.88-29.76-17.92 0-33.568 10.88-42.848 29.76l-85.056 173.76c-3.136 6.4-14.656 14.848-21.632 15.872l-190.272 27.84c-20.704 3.072-35.744 14.56-41.28 31.584-5.6 17.024-0.192 35.264 14.784 50.016L282.624 592c5.12 5.024 9.6 18.848 8.352 25.92l-32.512 190.944c-3.52 20.8 2.784 38.816 17.344 49.344 7.52 5.44 16.256 8.16 25.472 8.16 8.576 0 17.632-2.368 26.56-7.104l170.176-90.144c6.08-3.2 20.48-3.2 26.56 0l170.144 90.144c18.496 9.824 37.504 9.408 52.032-1.056 14.56-10.56 20.896-28.512 17.376-49.312l-32.512-190.976c-1.216-7.072 3.232-20.896 8.32-25.92l137.696-135.2z" p-id="2605" fill="#3a40f5"></path></svg>