<?xml version="1.0" standalone="no"?><!DOCTYPE svg PUBLIC "-//W3C//DTD SVG 1.1//EN" "http://www.w3.org/Graphics/SVG/1.1/DTD/svg11.dtd"><svg t="1503899592075" class="icon" style="" viewBox="0 0 1024 1024" version="1.1" xmlns="http://www.w3.org/2000/svg" p-id="2431" xmlns:xlink="http://www.w3.org/1999/xlink" width="48" height="48"><defs><style type="text/css"></style></defs><path d="M640 790.528H297.504v-0.096l86.496 0.032v-118.88c0-0.8 0.224-1.536 0.224-2.304 1.28-69.6 57.984-125.888 127.776-125.888s126.496 56.32 127.776 125.888c0 0.768 0.224 1.504 0.224 2.304v118.944z m240.896-427.68L800 309.856V207.168a32 32 0 1 0-64 0v60.8l-206.464-135.328A31.296 31.296 0 0 0 511.424 128a31.168 31.168 0 0 0-17.6 4.64L142.464 362.88a32 32 0 0 0 35.072 53.536L192 406.912V800c0 30.08 27.168 54.592 60.576 54.592h518.848C804.832 854.56 832 830.08 832 800V407.36l13.856 9.056a31.968 31.968 0 0 0 35.04-53.536z" p-id="2432" fill="#3a40f5"></path></svg>