<?xml version="1.0" standalone="no"?><!DOCTYPE svg PUBLIC "-//W3C//DTD SVG 1.1//EN" "http://www.w3.org/Graphics/SVG/1.1/DTD/svg11.dtd"><svg t="1503899586553" class="icon" style="" viewBox="0 0 1024 1024" version="1.1" xmlns="http://www.w3.org/2000/svg" p-id="2258" xmlns:xlink="http://www.w3.org/1999/xlink" width="48" height="48"><defs><style type="text/css"></style></defs><path d="M768 790.56l-128-0.032v-118.944a128.224 128.224 0 0 0-128-128.192c-70.592 0-128 57.504-128 128.192v118.88l-128-0.032V364.992l255.68-167.52L768 365.376v425.184z m-192-0.032l-128-0.032v-118.912c0-35.392 28.704-64.192 64-64.192s64 28.8 64 64.192v118.944z m304.896-427.68L800 309.856V207.168a32 32 0 1 0-64 0v60.768l-206.464-135.296A31.296 31.296 0 0 0 511.424 128a31.168 31.168 0 0 0-17.6 4.64l-351.36 230.208a32 32 0 0 0 35.072 53.536L192 406.912v393.056c0 30.08 27.2 54.592 60.576 54.592h518.848c33.408 0 60.576-24.512 60.576-54.592v-392.64l13.856 9.056a31.968 31.968 0 0 0 35.04-53.536z" p-id="2259" fill="#3a40f5"></path></svg>