<?xml version="1.0" standalone="no"?><!DOCTYPE svg PUBLIC "-//W3C//DTD SVG 1.1//EN" "http://www.w3.org/Graphics/SVG/1.1/DTD/svg11.dtd"><svg t="1503924833298" class="icon" style="" viewBox="0 0 1024 1024" version="1.1" xmlns="http://www.w3.org/2000/svg" p-id="2605" xmlns:xlink="http://www.w3.org/1999/xlink" width="48" height="48"><defs><style type="text/css"></style></defs><path d="M688 416a48 48 0 0 1-0.064-96h0.128a48 48 0 0 1-0.064 96m-160 0a48 48 0 0 1-0.064-96h0.128a48 48 0 0 1-0.064 96m362.848-256h-0.032c-8.544-18.88-26.848-32-48.16-32H373.344c-21.312 0-39.648 13.12-48.16 32a56.512 56.512 0 0 0-5.184 23.264V320H160h53.344C183.936 320 160 344.832 160 375.36v377.152c0 30.56 24 55.36 53.44 55.36H274.528c1.376 0.064 3.488 0.96 5.408 2.144l0.256 45.856c0 2.784 0.64 5.44 1.376 8.128a31.552 31.552 0 0 0 5.248 11.2c10.176 13.216 24.96 20.8 40.672 20.8h0.064c14.784 0 28.736-6.72 38.816-18.464l14.24-13.536 44.864-42.688c1.984-1.856 4.768-5.824 6.208-8.128a15.84 15.84 0 0 1 9.056-5.28h241.952c15.296 0 29.088-6.752 38.848-17.504l-0.352-0.352h0.544l-28.96-27.328-19.584-18.816h-0.352l-79.84-75.392H384c-115.04-0.992-118.016-94.976-118.016-94.976V355.2c0.128-1.088 0.672-2.08 0.672-3.232 0-1.152-0.544-2.112-0.672-3.232v-0.256h-0.032A31.68 31.68 0 0 0 234.656 320H320v240.608c0 5.376 0.992 10.464 2.4 15.36 6.496 23.008 26.752 39.936 50.912 39.936h241.952a15.84 15.84 0 0 1 9.024 5.216 31.776 31.776 0 0 0 6.24 8.192l59.136 56.224c10.048 11.744 24.064 18.464 38.816 18.464 2.56 0 5.024-0.512 7.52-0.896a51.84 51.84 0 0 0 33.184-19.904c4.256-5.536 6.592-12.32 6.656-19.328l0.256-45.856a13.216 13.216 0 0 1 5.344-2.112h61.12c24.256 0 44.544-16.96 51.072-39.904a56.32 56.32 0 0 0 2.368-15.488V183.36c0-8.384-1.92-16.256-5.152-23.392" p-id="2606" fill="#3a40f5"></path></svg>