<?xml version="1.0" standalone="no"?><!DOCTYPE svg PUBLIC "-//W3C//DTD SVG 1.1//EN" "http://www.w3.org/Graphics/SVG/1.1/DTD/svg11.dtd"><svg t="1504231185160" class="icon" style="" viewBox="0 0 1024 1024" version="1.1" xmlns="http://www.w3.org/2000/svg" p-id="2431" xmlns:xlink="http://www.w3.org/1999/xlink" width="48" height="48"><defs><style type="text/css"></style></defs><path d="M797.184 518.496l-284.384 294.016-284.16-292A162.752 162.752 0 0 1 192 417.6C192 328.512 263.808 256 352 256a159.36 159.36 0 0 1 133.28 72.16L512 368.64l26.72-40.48A159.488 159.488 0 0 1 672 256c88.224 0 160 72.512 160 161.6 0 37.536-12.992 74.08-34.816 100.896M672 192a222.72 222.72 0 0 0-160 67.712A222.624 222.624 0 0 0 352 192c-123.52 0-224 101.216-224 225.6 0 52.288 18.176 103.232 52.96 145.536l285.952 293.984a62.4 62.4 0 0 0 45.088 19.168c17.12 0 33.12-6.816 45.12-19.136l287.744-296.064A226.816 226.816 0 0 0 896 417.6C896 293.216 795.52 192 672 192" p-id="2432" fill="#3a40f5"></path></svg>