<?xml version="1.0" standalone="no"?><!DOCTYPE svg PUBLIC "-//W3C//DTD SVG 1.1//EN" "http://www.w3.org/Graphics/SVG/1.1/DTD/svg11.dtd"><svg t="1507222215580" class="icon" style="" viewBox="0 0 1024 1024" version="1.1" xmlns="http://www.w3.org/2000/svg" p-id="5050" xmlns:xlink="http://www.w3.org/1999/xlink" width="48" height="48"><defs><style type="text/css"></style></defs><path d="M737.024 210.208C733.312 210.4 732.352 210.336 728.672 210.88 721.76 211.936 715.04 214.08 708.832 217.28 702.624 220.48 696.96 224.704 692.096 229.728 688.224 233.728 684.864 238.272 682.144 243.136 673.984 257.888 671.936 275.616 676.576 291.808 678.88 299.872 682.784 307.456 688 314.016 690.336 316.928 691.04 317.536 693.632 320.224L696.736 323.04C710.592 334.752 723.424 347.552 734.912 361.6 762.88 395.776 782.816 436.224 792.704 479.264 800.704 514.208 802.08 550.624 796.864 586.08 791.456 622.848 778.944 658.496 760.064 690.496 745.408 715.296 727.008 737.792 705.696 757.152 684.992 775.936 661.6 791.744 636.352 803.84 608.96 816.96 579.488 825.664 549.344 829.536 514.976 833.984 479.84 832.192 446.112 824.288 410.912 816.064 377.344 801.184 347.68 780.576 315.712 758.336 288.384 729.536 267.712 696.544 246.464 662.656 232.48 624.352 226.88 584.736 220.704 541.248 224.608 496.48 238.176 454.72 248.672 422.4 264.928 392 286.048 365.344 295.84 352.96 306.72 341.536 318.336 330.848 322.272 327.328 326.272 323.936 330.176 320.416 332.768 317.728 333.472 317.12 335.776 314.208 340.992 307.616 344.864 300.032 347.168 291.968 349.44 283.904 350.144 275.392 349.152 267.072 348.352 260.128 346.4 253.344 343.392 247.04 340.416 240.736 336.384 234.912 331.52 229.92 319.776 217.824 303.392 210.752 286.528 210.496 280.96 210.4 275.36 211.072 269.952 212.416 263.168 214.144 256.704 216.96 250.816 220.736 245.6 224.128 240.96 228.352 236.32 232.48 229.696 238.336 223.232 244.416 216.992 250.688 191.424 276.352 169.216 305.408 151.168 336.832 120.32 390.592 101.792 451.168 97.184 512.96 92.544 574.848 101.856 637.6 124.448 695.392 140.288 735.904 162.56 773.824 190.112 807.456 216.672 839.904 248.096 868.352 283.104 891.424 322.496 917.376 366.304 936.48 412.096 947.776 465.472 960.928 521.344 963.424 575.68 955.072 626.08 947.328 674.944 930.24 719.136 904.832 760.352 881.12 797.504 850.304 828.384 814.176 853.92 784.32 875.168 750.848 891.296 715.04 922.816 644.96 934.368 566.432 924.544 490.272 918.688 444.96 905.312 400.672 885.056 359.712 868.288 325.824 846.88 294.24 821.6 266.112 811.488 254.848 800.736 244.224 789.504 234.048 786.208 231.136 782.848 228.224 779.488 225.376 776.576 223.04 775.904 222.4 772.768 220.384 766.88 216.608 760.384 213.792 753.632 212.096 749.504 211.072 745.408 210.624 741.216 210.272 739.808 210.24 738.432 210.24 737.024 210.208M576.032 576C576.032 592.96 569.28 609.248 557.28 621.248 545.28 633.248 528.992 640 512.032 640 495.04 640 478.784 633.248 466.784 621.248 454.784 609.248 448.032 592.96 448.032 576L448.032 128C448.032 111.008 454.784 94.752 466.784 82.72 478.784 70.72 495.04 64 512.032 64 528.992 64 545.28 70.72 557.28 82.72 569.28 94.752 576.032 111.008 576.032 128L576.032 576Z" p-id="5051" fill="#3a40f5"></path></svg>